<svg width="24" height="25" viewBox="0 0 24 25" fill="none" xmlns="http://www.w3.org/2000/svg">
<path fill-rule="evenodd" clip-rule="evenodd" d="M12 0.505005C5.37258 0.505005 0 5.87759 0 12.505C0 19.1324 5.37258 24.505 12 24.505C18.6274 24.505 24 19.1324 24 12.505C24 5.87759 18.6274 0.505005 12 0.505005ZM17.1688 9.83995H13.7791V8.86881H17.1688V9.83995ZM16.87 10.6552C16.4621 10.4747 16.0038 10.3842 15.4943 10.3842C14.6371 10.3842 13.9409 10.6522 13.4028 11.1845C12.8662 11.7184 12.5976 12.4853 12.5976 13.4854C12.5976 14.5516 12.8941 15.3223 13.4909 15.7952C14.0847 16.2689 14.7718 16.505 15.5507 16.505C16.4937 16.505 17.2275 16.2244 17.7513 15.6638C18.087 15.3104 18.2766 14.9622 18.318 14.6206H16.7564C16.6661 14.7899 16.5607 14.9221 16.441 15.0179C16.2235 15.1938 15.9398 15.2822 15.5929 15.2822C15.2632 15.2822 14.9825 15.2094 14.7492 15.0646C14.3639 14.8322 14.1622 14.4261 14.1366 13.8477H18.3985C18.4053 13.3496 18.3887 12.9664 18.3474 12.7021C18.2766 12.25 18.1216 11.852 17.88 11.509C17.6151 11.1199 17.2787 10.8348 16.87 10.6552ZM9.4224 8.505C10.3872 8.51911 11.0698 8.79605 11.4725 9.33656C11.714 9.66844 11.8352 10.0649 11.8352 10.5275C11.8352 11.0034 11.714 11.3872 11.4694 11.6768C11.3325 11.8386 11.1315 11.9871 10.8659 12.1208C11.2693 12.2663 11.5733 12.4957 11.7803 12.8098C11.985 13.1231 12.0881 13.5047 12.0881 13.9532C12.0881 14.4157 11.9707 14.8308 11.7351 15.1975C11.5861 15.4403 11.3995 15.6452 11.1752 15.8115C10.9231 16.0024 10.6258 16.1323 10.2819 16.2036C9.93792 16.2741 9.56614 16.3083 9.16426 16.3083H5.6V8.505H9.4224Z" fill="white"/>
<path fill-rule="evenodd" clip-rule="evenodd" d="M7.17664 9.85999H8.89856C9.27711 9.85999 9.58868 9.90082 9.83403 9.98175C10.117 10.0991 10.2585 10.3389 10.2585 10.7034C10.2585 11.0301 10.1509 11.2588 9.93713 11.388C9.72189 11.5172 9.44268 11.5817 9.10025 11.5817H7.17664V9.85999ZM14.5821 11.9589C14.7981 11.7392 15.1037 11.6293 15.495 11.6293C15.8562 11.6293 16.158 11.7325 16.4034 11.9396C16.6457 12.1482 16.7827 12.4512 16.8105 12.8521H14.1742C14.2299 12.4764 14.3661 12.1787 14.5821 11.9589ZM9.12434 12.8729H7.17664V14.954H9.09724C9.44042 14.954 9.70835 14.908 9.89875 14.8166C10.2457 14.6459 10.4188 14.3222 10.4188 13.8425C10.4188 13.4357 10.2517 13.1572 9.91531 13.005C9.72716 12.9204 9.463 12.8759 9.12434 12.8729Z" fill="white"/>
</svg>
