<svg width="107" height="131" viewBox="0 0 107 131" fill="none" xmlns="http://www.w3.org/2000/svg">
<path d="M2 128.844C5.42724 126.601 66.9342 85.4508 61.8072 79.3625C57.8222 74.6303 36.3666 83.4431 30.965 84.7935C26.5721 85.8917 15.5753 90.2916 22.2486 82.3126C32.5073 70.0469 48.0389 63.1135 60.8686 54.0852C61.0341 53.9687 74.975 43.7984 71.4622 42.2177C63.9207 38.8241 51.027 44.7886 43.1678 45.503C32.9975 46.4276 40.7021 40.3226 45.6486 37.122C61.8493 26.6392 79.351 18.8999 95.4656 8.15705C106.523 0.785829 94.7058 5.61917 89.4982 2.72612C86.6691 1.1544 99.6799 3.32954 102.774 3.32954C106.603 3.32954 104.408 4.19345 102.439 6.95018C99.12 11.5962 97.343 16.9621 97.343 22.6395" stroke="white" stroke-width="3" stroke-linecap="round"/>
</svg>
