<svg width="24" height="25" viewBox="0 0 24 25" fill="none" xmlns="http://www.w3.org/2000/svg">
<path fill-rule="evenodd" clip-rule="evenodd" d="M12 0.505005C5.37258 0.505005 0 5.87759 0 12.505C0 19.1324 5.37258 24.505 12 24.505C18.6274 24.505 24 19.1324 24 12.505C24 5.87759 18.6274 0.505005 12 0.505005ZM18.2694 11.2095C18.3559 11.6298 18.4 12.063 18.4 12.4961C18.4 12.929 18.3559 13.3612 18.2694 13.7825C18.185 14.1938 18.06 14.5976 17.8962 14.9836C17.7362 15.3628 17.5378 15.7282 17.3059 16.069C17.0775 16.4076 16.8143 16.7253 16.5252 17.0149C16.2355 17.3032 15.9168 17.5656 15.5783 17.795C15.2364 18.0253 14.8705 18.2235 14.4911 18.3842C14.1045 18.5471 13.6998 18.6719 13.2888 18.7562C12.867 18.8429 12.4332 18.8872 11.9997 18.8872C11.5659 18.8872 11.1322 18.8429 10.7109 18.7562C10.2993 18.6719 9.89461 18.5471 9.50834 18.3842C9.12895 18.2235 8.76267 18.0253 8.42078 17.795C8.08233 17.5656 7.76356 17.3032 7.47448 17.0149C7.1851 16.7253 6.92195 16.4076 6.69319 16.069C6.46255 15.7282 6.26378 15.3628 6.10316 14.9836C5.93938 14.5976 5.81408 14.1938 5.72938 13.7825C5.64376 13.3612 5.6 12.929 5.6 12.4961C5.6 12.063 5.64374 11.6298 5.72941 11.2095C5.8141 10.7982 5.93941 10.3937 6.10318 10.0083C6.26381 9.62887 6.46258 9.26313 6.69322 8.92234C6.92198 8.58345 7.18513 8.26637 7.47451 7.97646C7.76359 7.6881 8.08235 7.4263 8.42081 7.19725C8.76269 6.96599 9.12898 6.76785 9.50836 6.60681C9.89464 6.44357 10.2993 6.31845 10.7109 6.23483C11.1322 6.1487 11.566 6.105 11.9997 6.105C12.4332 6.105 12.867 6.1487 13.2888 6.23483C13.6998 6.31848 14.1045 6.4436 14.4911 6.60681C14.8705 6.76783 15.2365 6.96599 15.5783 7.19725C15.9168 7.4263 16.2356 7.6881 16.5253 7.97646C16.8143 8.26637 17.0775 8.58345 17.3059 8.92234C17.5378 9.26313 17.7362 9.62889 17.8962 10.0083C18.06 10.3937 18.185 10.7982 18.2694 11.2095Z" fill="white"/>
<path fill-rule="evenodd" clip-rule="evenodd" d="M15.6088 8.40067L15.6092 8.39994C14.647 7.55267 13.3835 7.03873 11.9997 7.03873C11.5556 7.03873 11.1246 7.09241 10.7118 7.19164L10.7207 7.20353C10.8501 7.37661 11.846 8.70863 12.755 10.3753C14.8004 9.60959 15.583 8.43924 15.6088 8.40067ZM16.2202 9.02951C16.1989 9.05988 15.3198 10.3142 13.1757 11.1886C13.3025 11.4488 13.4254 11.7137 13.5388 11.98C13.5791 12.0755 13.6185 12.1691 13.6569 12.2627C15.4986 12.0313 17.3135 12.4087 17.4569 12.4386L17.4634 12.4399C17.4509 11.1461 16.9874 9.9587 16.2205 9.02907L16.2202 9.02951ZM13.9901 13.124C14.707 15.0913 14.9983 16.6934 15.0539 17.0223C16.2811 16.1954 17.1527 14.8822 17.3959 13.3611C17.2834 13.3249 15.7542 12.8415 13.9901 13.124ZM12.966 13.3768C13.7351 15.3727 14.0526 17.0442 14.1335 17.521C13.4775 17.7996 12.7566 17.9535 11.9997 17.9535C10.7321 17.9535 9.56829 17.5188 8.64041 16.7983C8.65181 16.7736 9.70491 14.5112 12.9297 13.3886C12.9373 13.3859 12.945 13.3834 12.9527 13.381L12.966 13.3768ZM12.15 11.545C12.3065 11.8514 12.4563 12.1622 12.5934 12.4724C12.5216 12.493 12.449 12.5142 12.3778 12.538C9.42829 13.4904 7.93256 16.1401 7.93444 16.1429C7.06377 15.1764 6.53406 13.8982 6.53406 12.4961C6.53406 12.4556 6.53539 12.4161 6.53674 12.3762L6.53844 12.322C6.63531 12.3257 9.33578 12.3863 12.15 11.545ZM11.6971 10.7045C10.7512 9.02625 9.74049 7.65663 9.66767 7.55955C8.14351 8.27825 7.00595 9.68067 6.65124 11.3708L6.6565 11.3709C6.84328 11.3726 9.10055 11.3935 11.6971 10.7045Z" fill="white"/>
</svg>
