<svg width="127" height="127" viewBox="0 0 127 127" fill="none" xmlns="http://www.w3.org/2000/svg">
<path d="M76.0911 1H51.1751L28.1529 10.5336L10.5349 28.1517L1 51.1678V76.0801L10.5349 99.099L28.1529 116.714L51.1751 126.248H76.0911L99.1105 116.714L116.731 99.099L126.266 76.0801V51.1678L116.731 28.1517L99.1105 10.5336L76.0911 1Z" stroke="white" stroke-miterlimit="10"/>
<path d="M63.677 112.206C89.9009 112.206 111.16 90.95 111.16 64.7299C111.16 38.5098 89.9009 17.2543 63.677 17.2543C37.4531 17.2543 16.1945 38.5098 16.1945 64.7299C16.1945 90.95 37.4531 112.206 63.677 112.206Z" stroke="white" stroke-width="1.03" stroke-miterlimit="10"/>
<path d="M11.3061 59.31C11.2375 60.2266 11.0948 61.0526 10.867 61.7935C10.6392 62.5345 10.329 63.1355 9.9228 63.5883C9.51659 64.0411 9.0253 64.2716 8.43794 64.2579C7.84509 64.2579 7.34556 64.0274 6.94759 63.5499C6.54961 63.0751 6.25594 62.411 6.08028 61.5658C5.90737 60.7233 5.85522 59.7655 5.93481 58.7172C6.03636 57.3698 6.3273 56.3133 6.76919 55.5476C7.21108 54.7792 7.75177 54.3566 8.37481 54.2496C8.31443 54.6502 8.25953 55.0509 8.20739 55.4543C7.72433 55.5366 7.32635 55.8852 7.03267 56.5163C6.73899 57.1475 6.55511 57.8994 6.48649 58.7721C6.39043 60.0564 6.52766 61.0992 6.87074 61.8594C7.21382 62.6223 7.73256 63.0038 8.41049 63.0175C9.12136 63.0339 9.66205 62.6909 10.0518 62.0213C10.4415 61.3517 10.6639 60.4242 10.7517 59.2359C10.8176 58.3468 10.7819 57.5866 10.6254 56.9389C10.4717 56.2913 10.1808 55.8605 9.74165 55.6464C9.7938 55.2485 9.84869 54.8506 9.90908 54.4581C10.4635 54.7737 10.8532 55.339 11.0975 56.1541C11.3445 56.9719 11.4022 58.0065 11.3034 59.3072L11.3061 59.31Z" fill="white"/>
<path d="M11.6767 52.1173C12.028 50.3445 12.4534 48.6293 12.9529 46.9718C13.1121 47.0267 13.2713 47.0816 13.4305 47.1364C12.8404 49.0958 12.3519 51.1403 11.9731 53.2644C10.2687 52.8966 8.56149 52.5317 6.85706 52.1639C7.26326 49.8862 7.78201 47.6963 8.41053 45.5914L8.91555 45.7643C8.39955 47.5014 7.95492 49.2989 7.58714 51.154C8.17175 51.2913 8.7591 51.4312 9.34371 51.5684C9.62367 50.1442 9.95303 48.7556 10.3263 47.4026C10.4855 47.4548 10.6474 47.5042 10.8066 47.5563C10.4361 48.8983 10.1095 50.2731 9.83227 51.6864C10.4471 51.8319 11.0646 51.9773 11.6794 52.1228L11.6767 52.1173Z" fill="white"/>
<path d="M13.8916 45.6765C12.2503 45.0563 10.609 44.4389 8.96765 43.8186C9.30524 42.8033 9.67028 41.8099 10.0573 40.8384C10.5047 39.7187 10.9767 38.9256 11.4351 38.4344C11.8962 37.9432 12.3875 37.8444 12.9035 38.1133C13.2356 38.2862 13.4469 38.5936 13.543 39.0272C13.6391 39.4608 13.543 39.9959 13.2603 40.6463C13.436 40.2374 13.6226 39.963 13.812 39.8148C14.0014 39.6693 14.1907 39.6007 14.3774 39.6062C14.564 39.6144 14.7424 39.6556 14.9098 39.7297C15.08 39.8038 15.2364 39.8614 15.3847 39.9026C15.5301 39.9438 15.6591 39.9273 15.7717 39.8532C15.8842 39.7791 15.972 39.6007 16.0406 39.3208C16.1559 39.3812 16.2739 39.4443 16.3892 39.5047C16.3947 39.609 16.3645 39.7489 16.3041 39.9245C16.2437 40.1029 16.1532 40.2703 16.0351 40.4377C15.9171 40.6024 15.7717 40.7176 15.596 40.7835C15.4231 40.8494 15.22 40.8274 14.9894 40.7149C14.6409 40.5448 14.3582 40.446 14.1358 40.4185C13.9163 40.3911 13.7104 40.4761 13.521 40.6737C13.3344 40.8713 13.1313 41.2226 12.9227 41.7358C12.7141 42.2489 12.4369 42.9542 12.1103 43.8735C12.8129 44.1534 13.5183 44.4361 14.2209 44.716C14.1084 45.0344 13.9986 45.3527 13.8888 45.6765H13.8916ZM11.6849 43.7034C11.9236 43.031 12.1762 42.3669 12.4396 41.7138C12.758 40.9262 12.9474 40.3252 12.9968 39.8944C13.0462 39.4635 12.8953 39.1562 12.5357 38.9778C12.2557 38.8378 12.0032 38.8378 11.7754 38.9833C11.5504 39.1287 11.3281 39.3894 11.1195 39.7736C10.9109 40.1578 10.6831 40.649 10.447 41.25C10.2247 41.8126 10.0134 42.3807 9.80752 42.9542C10.4333 43.2039 11.0591 43.4537 11.6849 43.7034Z" fill="white"/>
<path d="M12.5275 36.6479C12.3738 36.5628 12.2201 36.4805 12.0664 36.3954C13.1204 34.3235 14.2923 32.3614 15.5686 30.509C15.7113 30.6106 15.854 30.7121 15.9995 30.8136C15.4643 31.5903 14.9455 32.3888 14.4488 33.2066C15.7882 34.0601 17.1303 34.9163 18.4697 35.7698C18.3078 36.036 18.1486 36.3049 17.9894 36.5766C16.6335 35.7451 15.2804 34.9163 13.9245 34.0848C13.4387 34.919 12.9721 35.7752 12.5275 36.6479V36.6479Z" fill="white"/>
<path d="M21.9911 29.93C22.1256 30.0425 22.2601 30.155 22.3973 30.2675C21.7386 31.0633 21.1019 31.8839 20.4898 32.7291C20.3471 32.6248 20.2071 32.5205 20.0644 32.4163C20.2812 32.1144 20.5035 31.8153 20.7286 31.5189C19.6088 30.6544 18.4862 29.7873 17.3664 28.9228C17.1249 29.2412 16.8861 29.565 16.65 29.8915C16.5073 29.7873 16.3673 29.683 16.2246 29.5787C16.8971 28.6484 17.5969 27.7455 18.3215 26.8701C18.456 26.9826 18.5905 27.0951 18.7277 27.2077C18.4725 27.5123 18.2227 27.8224 17.9757 28.1352C19.0818 29.0189 20.1879 29.9053 21.294 30.7889C21.5245 30.498 21.7551 30.2126 21.9911 29.9272V29.93Z" fill="white"/>
<path d="M24.2691 28.1462C24.0632 28.3658 23.8601 28.588 23.657 28.8103C22.3423 27.6303 21.0249 26.4475 19.7102 25.2675C21.0606 23.7719 22.4878 22.3668 23.9836 21.0551C24.1044 21.1868 24.2252 21.3212 24.3432 21.453C23.1053 22.5397 21.9142 23.6895 20.7751 24.9025C21.1896 25.2867 21.604 25.6709 22.0185 26.0578C22.8885 25.1303 23.7915 24.2411 24.722 23.3904C24.8372 23.5139 24.9552 23.6374 25.0705 23.7609C24.1483 24.6034 23.2536 25.487 22.3917 26.4064C23.0175 26.9881 23.6433 27.5699 24.2691 28.1517V28.1462Z" fill="white"/>
<path d="M30.516 21.9195L30.8371 22.3366C30.0247 22.9321 29.2288 23.5551 28.452 24.2027C28.3368 24.071 28.2215 23.9365 28.1062 23.8048C28.3834 23.5743 28.6634 23.3465 28.9461 23.1215C28.0431 22.0347 27.1373 20.948 26.2344 19.8586C25.9297 20.1 25.6278 20.347 25.3286 20.5968C25.2133 20.465 25.0981 20.3306 24.9828 20.1988C25.8364 19.4853 26.7119 18.802 27.6067 18.1461C27.7137 18.2861 27.8208 18.4233 27.9278 18.5633C27.6149 18.7938 27.3048 19.027 26.9946 19.263C27.8811 20.3662 28.7649 21.4667 29.6514 22.5699C29.9369 22.3503 30.2251 22.1335 30.516 21.9222V21.9195Z" fill="white"/>
<path d="M32.6678 20.4513C33.9303 19.6253 35.2285 18.8541 36.5597 18.1461L36.8122 18.5852C35.2395 19.4249 33.7107 20.3498 32.2314 21.3542C31.2021 19.9244 30.1701 18.4946 29.1409 17.0649C30.7245 15.9864 32.3631 14.9957 34.0456 14.0901L34.3145 14.5511C32.9258 15.2976 31.5671 16.1044 30.247 16.9688C30.5928 17.4683 30.9414 17.965 31.2872 18.4644C32.3027 17.8003 33.3402 17.1719 34.3969 16.5791L34.6576 17.0127C33.6119 17.6 32.5827 18.223 31.5781 18.8816C31.9432 19.4057 32.3082 19.9299 32.6705 20.454L32.6678 20.4513Z" fill="white"/>
<path d="M43.3198 12.8662C43.5668 13.5083 43.5696 14.0736 43.339 14.5649C43.1085 15.0533 42.694 15.4897 42.1012 15.8848C41.5056 16.2828 40.781 16.6642 39.9247 17.0512C39.2989 17.3338 38.6786 17.6275 38.0638 17.9348C37.2267 16.3925 36.3923 14.8475 35.5552 13.3052C36.2304 12.9677 36.9138 12.6439 37.6027 12.3338C38.5469 11.9084 39.4224 11.6505 40.2129 11.5462C41.0033 11.4419 41.6703 11.5078 42.2055 11.7218C42.7407 11.9386 43.1085 12.3228 43.3198 12.8662V12.8662ZM38.621 17.0896C39.0354 16.892 39.4553 16.6971 39.8753 16.5105C40.5395 16.2142 41.0966 15.9205 41.5495 15.6187C42.0024 15.3168 42.3098 14.9792 42.4717 14.5923C42.6336 14.2054 42.6089 13.7416 42.3894 13.201C42.1204 12.5396 41.6017 12.1664 40.8167 12.1087C40.0345 12.0511 39.0958 12.2487 38.0309 12.7235C37.578 12.9265 37.1251 13.1351 36.6777 13.3492C37.3255 14.595 37.9732 15.8437 38.6237 17.0896H38.621Z" fill="white"/>
<path d="M51.7349 13.3986C50.7111 13.6044 49.885 13.5907 49.229 13.33C48.5731 13.072 48.1339 12.589 47.9226 11.87C47.6426 10.9095 47.3654 9.94904 47.0854 8.98855C47.4093 8.90348 47.7359 8.82115 48.0625 8.74157C48.326 9.70755 48.5868 10.6708 48.8503 11.6368C49.0149 12.2405 49.3553 12.6219 49.8658 12.7921C50.3763 12.9622 50.9554 12.9787 51.6141 12.847C52.3277 12.7043 52.8657 12.4683 53.2362 12.1225C53.6068 11.7767 53.7412 11.2965 53.6315 10.6763C53.4558 9.69383 53.2829 8.71138 53.1072 7.72894C53.4393 7.6768 53.7714 7.6274 54.1035 7.578C54.26 8.56319 54.4192 9.54838 54.5756 10.5336C54.6936 11.2855 54.5043 11.8947 54.0239 12.3777C53.5436 12.8607 52.7834 13.1873 51.7349 13.3986V13.3986Z" fill="white"/>
<path d="M59.4776 11.7438C59.4886 11.9167 59.5023 12.0896 59.5133 12.2597C58.5033 12.3228 57.4987 12.4106 56.4942 12.5259C56.4722 12.3557 56.4503 12.1829 56.4283 12.0127C56.7851 11.9716 57.1446 11.9331 57.5042 11.9002C57.356 10.5171 57.205 9.13399 57.0568 7.74814C56.6698 7.78656 56.2828 7.82498 55.8958 7.87163C55.8739 7.70149 55.8519 7.5286 55.83 7.35845C56.9333 7.23222 58.0422 7.13343 59.151 7.06482C59.162 7.23771 59.1757 7.4106 59.1867 7.58074C58.7969 7.60544 58.4099 7.63288 58.0229 7.66307C58.1492 9.04892 58.2727 10.4348 58.399 11.8206C58.7585 11.7904 59.1181 11.7657 59.4776 11.7438Z" fill="white"/>
<path d="M60.7786 12.1966C61.8764 10.4155 63.0923 8.66196 64.429 6.95229C64.7501 6.95777 65.0712 6.96875 65.3923 6.97973C64.031 8.67019 62.7822 10.4018 61.6569 12.1691C61.3659 12.1774 61.0722 12.1856 60.7813 12.1993L60.7786 12.1966Z" fill="white"/>
<path d="M69.2788 12.5917C68.2413 12.482 67.4618 12.2213 66.9239 11.7794C66.3887 11.3376 66.1307 10.7504 66.1719 10.0039C66.2268 9.01049 66.2816 8.01433 66.3393 7.0209C66.6741 7.03737 67.0117 7.05658 67.3466 7.07853C67.2725 8.07195 67.2011 9.06538 67.127 10.0588C67.0831 10.6817 67.278 11.1455 67.7061 11.4584C68.1343 11.774 68.6777 11.9606 69.3447 12.0319C70.0693 12.1088 70.6594 12.0456 71.126 11.8261C71.5926 11.6093 71.8807 11.1949 71.9823 10.572C72.1442 9.58679 72.3062 8.60434 72.4681 7.61915C72.8002 7.66855 73.1323 7.72069 73.4644 7.77283C73.286 8.75528 73.1049 9.73498 72.9265 10.7174C72.7892 11.4666 72.405 11.988 71.7902 12.3036C71.1726 12.6192 70.3437 12.7043 69.2761 12.5917H69.2788Z" fill="white"/>
<path d="M73.6373 13.0994C74.7654 12.3695 75.9374 11.6724 77.1532 11.0138C76.4753 10.0121 75.7535 9.02146 74.9877 8.04176C75.3774 8.11586 75.7672 8.1927 76.1569 8.27228C76.7525 9.10105 77.3207 9.93805 77.8559 10.7805C78.7534 10.2921 79.6728 9.82279 80.6142 9.37273C80.9958 9.4825 81.3745 9.59501 81.7533 9.71027C80.5841 10.2097 79.4478 10.7421 78.3472 11.3047C79.0718 12.4436 79.7414 13.5961 80.3563 14.757C80.0159 14.6499 79.6756 14.5484 79.3352 14.4469C78.8138 13.4699 78.2511 12.5012 77.6473 11.5379C76.6208 12.0978 75.6272 12.6823 74.6638 13.2915C74.3235 13.2229 73.9832 13.1571 73.6428 13.0939L73.6373 13.0994Z" fill="white"/>
<path d="M92.0649 16.9908C91.7026 17.5836 91.247 17.9403 90.7063 18.0803C90.1629 18.2175 89.5481 18.1873 88.8509 17.9952C88.151 17.8058 87.3825 17.5095 86.5262 17.1198C85.9004 16.8344 85.2691 16.5627 84.6351 16.302C85.3515 14.7048 86.0678 13.1049 86.7815 11.5078C87.4813 11.7932 88.1757 12.0923 88.8619 12.4051C89.8033 12.8332 90.5691 13.319 91.1564 13.8431C91.7438 14.3645 92.1171 14.9024 92.2817 15.4348C92.4492 15.9699 92.3723 16.4886 92.0649 16.988V16.9908ZM85.6671 16.1812C86.0898 16.3624 86.5125 16.549 86.9297 16.7411C87.5884 17.0457 88.1812 17.2735 88.7137 17.4189C89.2462 17.5643 89.7155 17.5781 90.1299 17.4546C90.5444 17.3311 90.9039 17.0182 91.2004 16.5105C91.5654 15.8931 91.5325 15.2701 91.0823 14.6499C90.6322 14.0325 89.8747 13.4589 88.8152 12.9732C88.3624 12.7646 87.9095 12.5643 87.4512 12.3667C86.8556 13.6373 86.26 14.9079 85.6644 16.1785L85.6671 16.1812Z" fill="white"/>
<path d="M92.7977 19.9162C94.0768 20.7175 95.3201 21.5764 96.525 22.4958C96.4207 22.6275 96.3137 22.7592 96.2094 22.8937C94.7849 21.807 93.3028 20.8026 91.7767 19.8832C92.7291 18.4041 93.6843 16.9249 94.6367 15.4485C96.2752 16.4364 97.8616 17.5095 99.3932 18.6675C99.2834 18.8075 99.1708 18.9474 99.0611 19.0874C97.7985 18.1297 96.4975 17.2323 95.1582 16.3953C94.8206 16.9002 94.483 17.4052 94.1454 17.9074C95.1719 18.5523 96.1792 19.2301 97.159 19.9464C97.0547 20.0808 96.9532 20.2153 96.8489 20.3498C95.8745 19.639 94.8782 18.9667 93.8627 18.3272C93.5086 18.8569 93.1546 19.3865 92.7977 19.9189V19.9162Z" fill="white"/>
<path d="M99.3712 25.6928C98.965 25.3224 98.6137 24.9299 98.309 24.5101C98.0044 24.0902 97.8068 23.6786 97.7189 23.2724C97.6311 22.8663 97.7107 22.5013 97.9687 22.1775C98.2075 22.3668 98.4463 22.5589 98.6823 22.7537C98.6713 22.7675 98.6439 22.8141 98.6 22.8937C98.5588 22.9733 98.5313 23.0831 98.5176 23.2203C98.5039 23.3602 98.5286 23.5304 98.589 23.7334C98.6494 23.9365 98.7756 24.1698 98.9677 24.436C99.1571 24.7022 99.4398 24.9986 99.8049 25.3361C100.214 25.7093 100.557 25.9645 100.845 26.088C101.133 26.2143 101.367 26.2664 101.542 26.2444C101.721 26.2225 101.839 26.1841 101.896 26.1264C102.061 25.9782 102.121 25.7916 102.077 25.5611C102.034 25.3333 101.924 25.0754 101.745 24.7927C101.567 24.5101 101.356 24.2109 101.111 23.9036C100.867 23.5962 100.626 23.2889 100.381 22.9815C100.14 22.6742 99.9311 22.375 99.7609 22.0814C99.588 21.7878 99.4892 21.5106 99.4673 21.2471C99.4426 20.9864 99.5304 20.7477 99.7362 20.5336C99.9339 20.3306 100.208 20.24 100.565 20.2729C100.922 20.3059 101.328 20.4403 101.776 20.6791C102.223 20.9178 102.687 21.2526 103.159 21.6807C103.59 22.0759 103.941 22.4958 104.207 22.9349C104.474 23.3739 104.616 23.7911 104.638 24.1808C104.66 24.5704 104.52 24.8888 104.229 25.1385C104.01 24.9107 103.787 24.6857 103.565 24.4634C103.743 24.3043 103.831 24.1149 103.829 23.8954C103.829 23.6758 103.763 23.4508 103.639 23.2148C103.513 22.9815 103.365 22.7592 103.192 22.5479C103.019 22.3394 102.857 22.1665 102.706 22.0293C102.231 21.5984 101.781 21.3103 101.364 21.1566C100.944 21.0057 100.65 21.0249 100.477 21.2087C100.335 21.3761 100.293 21.571 100.359 21.7987C100.422 22.0265 100.554 22.2762 100.752 22.5507C100.947 22.8251 101.172 23.116 101.424 23.4206C101.677 23.7252 101.918 24.0408 102.146 24.3591C102.377 24.6775 102.566 24.9931 102.714 25.3004C102.862 25.6078 102.931 25.8959 102.917 26.1649C102.906 26.4311 102.783 26.6616 102.55 26.8564C102.322 27.0458 102.039 27.1116 101.699 27.0567C101.358 27.0019 100.993 26.8564 100.593 26.6204C100.195 26.3844 99.7884 26.0743 99.3685 25.6928H99.3712Z" fill="white"/>
<path d="M104.978 30.756C104.841 30.8658 104.704 30.9755 104.567 31.0853C103.925 30.273 103.255 29.4854 102.566 28.7252C102.698 28.6072 102.827 28.4892 102.958 28.3712C103.205 28.6429 103.447 28.9173 103.688 29.1945C104.759 28.267 105.832 27.3421 106.902 26.4146C106.642 26.1155 106.381 25.8191 106.115 25.5254C106.247 25.4074 106.376 25.2894 106.507 25.1714C107.265 26.0084 108 26.8729 108.708 27.7648C108.571 27.8745 108.434 27.9843 108.297 28.0941C108.05 27.7812 107.797 27.4711 107.545 27.1665C106.458 28.0749 105.371 28.9832 104.284 29.8916C104.52 30.1742 104.753 30.4624 104.981 30.7505L104.978 30.756Z" fill="white"/>
<path d="M107.429 35.3526C107.012 34.6858 106.727 34.0628 106.573 33.4591C106.422 32.8554 106.411 32.3092 106.548 31.807C106.688 31.3076 106.985 30.8767 107.449 30.5227C107.918 30.177 108.423 30.0178 108.966 30.0562C109.507 30.0946 110.059 30.3169 110.605 30.734C111.151 31.1484 111.667 31.733 112.139 32.4876C112.743 33.4618 113.07 34.3537 113.138 35.1166C113.204 35.8823 113.012 36.497 112.578 36.9553C112.406 36.6754 112.23 36.3982 112.054 36.1238C112.375 35.7451 112.499 35.2621 112.414 34.6775C112.329 34.0958 112.082 33.4618 111.667 32.795C111.066 31.829 110.438 31.2445 109.82 31.0222C109.2 30.7999 108.601 30.885 108.028 31.2582C107.465 31.6726 107.202 32.2242 107.21 32.9075C107.218 33.5936 107.495 34.3482 108.028 35.2044C108.437 35.8631 108.876 36.3598 109.364 36.6891C109.853 37.0184 110.339 37.1062 110.827 36.9306C110.451 36.2308 110.059 35.5447 109.653 34.8724L110.051 34.6199C110.638 35.5969 111.198 36.6013 111.725 37.6331C110.997 38.031 110.27 38.4317 109.543 38.8296C109.439 38.6265 109.334 38.4235 109.227 38.2231C109.532 37.9652 109.834 37.7072 110.136 37.4492L110.122 37.4218C109.935 37.4355 109.697 37.3806 109.406 37.2626C109.112 37.1446 108.796 36.9333 108.456 36.6287C108.113 36.3268 107.775 35.896 107.432 35.3471L107.429 35.3526Z" fill="white"/>
<path d="M117.404 44.0327C117.522 44.3895 117.634 44.7462 117.747 45.1085C116.092 45.6875 114.439 46.2693 112.784 46.8483C112.598 46.2391 112.4 45.6354 112.192 45.0426C113.262 43.0613 114.236 40.9893 115.104 38.8461L115.09 38.8159C113.591 39.5513 112.09 40.2841 110.591 41.0195C110.457 40.7204 110.32 40.424 110.18 40.1304C111.747 39.3263 113.314 38.5223 114.881 37.7182C115.148 38.2808 115.406 38.8516 115.655 39.4306C114.782 41.6178 113.8 43.7281 112.716 45.7506L112.727 45.7808C114.286 45.199 115.845 44.6172 117.404 44.0382V44.0327Z" fill="white"/>
<path d="M114.03 49.4526C114.459 51.1678 114.81 52.9406 115.084 54.771C114.92 54.8012 114.755 54.8314 114.59 54.8615C114.266 52.6963 113.83 50.6107 113.292 48.6101C114.964 48.0887 116.632 47.5673 118.304 47.0459C118.88 49.1892 119.352 51.4202 119.704 53.7364C119.531 53.7693 119.358 53.8023 119.182 53.8325C118.891 51.9197 118.521 50.0673 118.073 48.2753C117.494 48.4427 116.915 48.6129 116.339 48.7803C116.682 50.1579 116.978 51.5712 117.228 53.0201C117.063 53.0531 116.901 53.0888 116.737 53.1217C116.49 51.6864 116.196 50.2841 115.856 48.9202C115.246 49.0986 114.64 49.2742 114.03 49.4526V49.4526Z" fill="white"/>
<path d="M114.813 56.5026C116.534 56.2446 118.254 55.9867 119.975 55.726C120.115 56.8923 120.228 58.0806 120.31 59.2908C120.403 60.6821 120.335 61.7908 120.143 62.5757C119.951 63.3633 119.558 63.7584 118.985 63.7612C118.614 63.7639 118.296 63.5526 118.021 63.141C117.747 62.7266 117.598 62.0982 117.563 61.2584C117.585 61.7853 117.541 62.186 117.437 62.4494C117.332 62.7129 117.195 62.894 117.028 62.9928C116.86 63.0916 116.684 63.1492 116.503 63.1657C116.322 63.1821 116.158 63.2096 116.009 63.2507C115.861 63.2919 115.754 63.3825 115.688 63.5252C115.622 63.6679 115.622 63.9121 115.683 64.2606H115.293C115.244 64.1481 115.208 63.9807 115.186 63.7529C115.161 63.5252 115.167 63.2892 115.2 63.0449C115.233 62.8007 115.309 62.5949 115.436 62.4247C115.562 62.2546 115.749 62.1668 116.001 62.1558C116.383 62.1393 116.679 62.0844 116.885 61.9884C117.091 61.8923 117.236 61.6865 117.316 61.3764C117.395 61.0636 117.42 60.5833 117.382 59.9384C117.34 59.2963 117.28 58.4208 117.168 57.3369C116.424 57.4329 115.677 57.529 114.933 57.6223C114.895 57.2463 114.854 56.8731 114.807 56.5026H114.813ZM117.623 57.2765C117.705 58.0723 117.771 58.8791 117.826 59.6942C117.889 60.6766 117.983 61.4176 118.128 61.9033C118.274 62.389 118.54 62.6305 118.935 62.6196C119.242 62.6113 119.468 62.4659 119.605 62.1832C119.742 61.9033 119.822 61.4999 119.838 60.9812C119.855 60.4626 119.841 59.8259 119.789 59.0822C119.739 58.3879 119.679 57.7018 119.61 57.0213C118.949 57.1063 118.287 57.1914 117.623 57.2765V57.2765Z" fill="white"/>
<path d="M84.6408 37.7484C83.5484 35.2456 81.5311 33.7171 79.3793 33.75C77.6858 33.7774 76.2284 34.7873 75.5752 36.3872C75.1525 37.4218 74.7188 39.6035 76.555 42.5892C77.5184 44.1562 77.8615 45.575 77.5733 46.8044C77.2823 48.0476 76.4123 48.9642 75.6904 49.5377C75.5861 49.0684 75.1717 48.7281 74.6859 48.7281H74.0629C71.546 48.7281 69.3064 47.0843 68.601 44.6694C68.59 44.6282 68.579 44.5898 68.568 44.5514C68.4885 44.2578 68.2826 44.0135 68.0081 43.8845C65.151 42.5508 61.8491 42.5508 58.9919 43.8845C58.7147 44.0135 58.5116 44.2578 58.432 44.5514C58.4211 44.5898 58.4101 44.6282 58.3991 44.6694C57.6937 47.0843 55.4541 48.7281 52.9372 48.7281H52.3142C51.8256 48.7281 51.4112 49.0684 51.3096 49.5377C50.5878 48.9642 49.7178 48.0476 49.4268 46.8044C49.1386 45.575 49.4817 44.1562 50.4451 42.5892C52.2813 39.6035 51.8476 37.4218 51.4249 36.3872C50.7744 34.7901 49.317 33.7802 47.6208 33.75C45.469 33.7171 43.4544 35.2456 42.3593 37.7484C40.1938 42.7045 37.0649 55.8852 53.8677 72.4166C55.2647 75.8222 57.2738 79.1592 60.1447 82.0819C60.1776 82.1148 60.1968 82.1587 60.1968 82.2054V83.7833C60.1968 83.83 60.1804 83.8739 60.1474 83.9068C59.5738 84.5188 58.948 84.8947 58.7147 85.0237C58.6571 85.0566 58.6214 85.1143 58.6214 85.1801V86.0391C58.6214 86.1132 58.572 86.1818 58.5034 86.2065C56.1732 87.0545 55.9701 88.8959 55.9673 89.4694C55.9673 89.5682 55.885 89.645 55.7889 89.645C55.6901 89.645 55.6105 89.7246 55.6105 89.8234V94.6835C55.3525 94.6835 55.1439 94.8921 55.1439 95.15V96.3959C55.1439 96.6539 55.3525 96.8624 55.6105 96.8624H71.4033C71.6613 96.8624 71.8699 96.6539 71.8699 96.3959V95.15C71.8699 94.8921 71.6613 94.6835 71.4033 94.6835V89.8234C71.4033 89.7246 71.3237 89.645 71.2249 89.645C71.1261 89.645 71.0465 89.5682 71.0465 89.4694C71.0437 88.8959 70.8406 87.0545 68.5104 86.2065C68.4391 86.1818 68.3924 86.1132 68.3924 86.0391V85.1801C68.3924 85.1143 68.3567 85.0539 68.2991 85.0237C68.0658 84.8947 67.44 84.5188 66.8664 83.9068C66.8362 83.8739 66.817 83.8272 66.817 83.7833V82.2054C66.817 82.1587 66.8362 82.1148 66.8691 82.0819C69.7373 79.1592 71.7491 75.825 73.1461 72.4166C89.9489 55.8824 86.82 42.7045 84.6545 37.7484H84.6408ZM44.1955 38.9257C44.9228 37.2599 46.1717 36.2692 47.5385 36.2692C47.555 36.2692 47.5714 36.2692 47.5852 36.2692C48.4936 36.2857 49.2457 36.7549 49.5503 37.5014C49.9154 38.396 49.6382 39.6694 48.7681 41.0826C47.393 43.3165 46.9402 45.4789 47.4205 47.5042C48.0325 50.0838 50.0087 51.6124 51.016 52.2435C50.7607 55.7233 50.7196 61.3764 52.2072 67.3397C39.9385 53.5169 42.4005 43.0228 44.1928 38.9229L44.1955 38.9257ZM74.7847 67.3424C76.2723 61.3792 76.2311 55.726 75.9759 52.2463C76.9859 51.6151 78.9621 50.0866 79.5714 47.507C80.0517 45.4789 79.5988 43.3192 78.2238 41.0854C77.3537 39.6694 77.0765 38.3988 77.4415 37.5041C77.7462 36.7604 78.4982 36.2884 79.4067 36.272C79.4232 36.272 79.4396 36.272 79.4534 36.272C80.8202 36.272 82.069 37.2599 82.7963 38.9284C84.5886 43.0283 87.0533 53.5224 74.782 67.3452L74.7847 67.3424Z" fill="white"/>
<path d="M63.5868 38.615L63.4986 38.5509L63.4105 38.615L61.4126 40.0669L62.1757 37.7179L62.2094 37.6142L62.1211 37.5501L60.1238 36.1009H62.5929H62.7019L62.7356 35.9972L63.4986 33.6482L64.2617 35.9972L64.2954 36.1009H64.4044H66.8735L64.8762 37.5501L64.7879 37.6142L64.8216 37.7179L65.5847 40.0669L63.5868 38.615Z" fill="#FF02A9" stroke="white" stroke-width="0.3"/>
<path d="M71.7744 41.0739L71.6861 41.0096L71.5979 41.0738L70.5939 41.8037L70.9778 40.6241L71.0116 40.5203L70.9233 40.4563L69.9198 39.7288H71.1591H71.268L71.3017 39.6252L71.6857 38.4455L72.0676 39.625L72.1012 39.7288H72.2103H73.4503L72.4487 40.4563L72.3607 40.5203L72.3942 40.6239L72.7762 41.8037L71.7744 41.0739Z" fill="#FF02A9" stroke="white" stroke-width="0.3"/>
<path d="M55.3997 41.0739L55.3115 41.0096L55.2232 41.0738L54.2193 41.8037L54.6032 40.6241L54.637 40.5203L54.5486 40.4563L53.5452 39.7288H54.7844H54.8934L54.9271 39.6252L55.3111 38.4455L55.6929 39.625L55.7266 39.7288H55.8357H57.0756L56.0741 40.4563L55.986 40.5203L56.0196 40.6239L56.4015 41.8037L55.3997 41.0739Z" fill="#FF02A9" stroke="white" stroke-width="0.3"/>
<path d="M64.3526 120.937L64.2644 120.873L64.1762 120.937L62.1783 122.389L62.9414 120.04L62.9751 119.936L62.8868 119.872L60.8895 118.423H63.3587H63.4677L63.5013 118.319L64.2644 115.97L65.0275 118.319L65.0611 118.423H65.1701H67.6393L65.642 119.872L65.5537 119.936L65.5874 120.04L66.3505 122.389L64.3526 120.937Z" fill="#FF02A9" stroke="white" stroke-width="0.3"/>
<path d="M86.4837 115.607L86.3955 115.543L86.3073 115.607L84.3094 117.059L85.0725 114.71L85.1062 114.606L85.018 114.542L83.0206 113.093H85.4898H85.5988L85.6324 112.989L86.3955 110.64L87.1586 112.989L87.1923 113.093H87.3012H89.7704L87.7731 114.542L87.6848 114.606L87.7185 114.71L88.4816 117.059L86.4837 115.607Z" fill="#FF02A9" stroke="white" stroke-width="0.3"/>
<path d="M40.7375 115.607L40.6493 115.543L40.5611 115.607L38.5632 117.059L39.3263 114.71L39.36 114.606L39.2717 114.542L37.2744 113.093H39.7436H39.8525L39.8862 112.989L40.6493 110.64L41.4124 112.989L41.446 113.093H41.555H44.0242L42.0268 114.542L41.9386 114.606L41.9723 114.71L42.7354 117.059L40.7375 115.607Z" fill="#FF02A9" stroke="white" stroke-width="0.3"/>
<path d="M105.725 102.315L105.637 102.251L105.549 102.315L103.551 103.767L104.314 101.418L104.348 101.314L104.26 101.25L102.262 99.8006H104.731H104.84L104.874 99.6969L105.637 97.3479L106.4 99.6969L106.434 99.8006H106.543H109.012L107.015 101.25L106.926 101.314L106.96 101.418L107.723 103.767L105.725 102.315Z" fill="#FF02A9" stroke="white" stroke-width="0.3"/>
<path d="M105.725 102.315L105.637 102.251L105.549 102.315L103.551 103.767L104.314 101.418L104.348 101.314L104.26 101.25L102.262 99.8006H104.731H104.84L104.874 99.6969L105.637 97.3479L106.4 99.6969L106.434 99.8006H106.543H109.012L107.015 101.25L106.926 101.314L106.96 101.418L107.723 103.767L105.725 102.315Z" fill="#FF02A9" stroke="white" stroke-width="0.3"/>
<path d="M22.3949 102.315L22.3068 102.251L22.2186 102.315L20.2207 103.767L20.9838 101.418L21.0175 101.314L20.9292 101.25L18.9319 99.8006H21.401H21.51L21.5437 99.6969L22.3068 97.3479L23.0698 99.6969L23.1035 99.8006H23.2125H25.6816L23.6843 101.25L23.5961 101.314L23.6297 101.418L24.3928 103.767L22.3949 102.315Z" fill="#FF02A9" stroke="white" stroke-width="0.3"/>
<path d="M117.835 82.3179L117.747 82.2538L117.659 82.3179L115.661 83.7699L116.424 81.4208L116.457 81.3171L116.369 81.2531L114.372 79.8038H116.841H116.95L116.984 79.7002L117.747 77.3512L118.51 79.7002L118.543 79.8038H118.652H121.122L119.124 81.2531L119.036 81.3171L119.07 81.4208L119.833 83.7699L117.835 82.3179Z" fill="#FF02A9" stroke="white" stroke-width="0.3"/>
<path d="M117.835 82.3179L117.747 82.2538L117.659 82.3179L115.661 83.7699L116.424 81.4208L116.457 81.3171L116.369 81.2531L114.372 79.8038H116.841H116.95L116.984 79.7002L117.747 77.3512L118.51 79.7002L118.543 79.8038H118.652H121.122L119.124 81.2531L119.036 81.3171L119.07 81.4208L119.833 83.7699L117.835 82.3179Z" fill="#FF02A9" stroke="white" stroke-width="0.3"/>
<path d="M12.1552 82.3179L12.067 82.2538L11.9788 82.3179L9.98094 83.7699L10.744 81.4208L10.7777 81.3171L10.6895 81.2531L8.69213 79.8038H11.1613H11.2703L11.3039 79.7002L12.067 77.3512L12.8301 79.7002L12.8638 79.8038H12.9727H15.4419L13.4446 81.2531L13.3563 81.3171L13.39 81.4208L14.1531 83.7699L12.1552 82.3179Z" fill="#FF02A9" stroke="white" stroke-width="0.3"/>
</svg>
