<svg width="59" height="47" viewBox="0 0 59 47" fill="none" xmlns="http://www.w3.org/2000/svg">
<path d="M56.7718 7.58701C45.007 7.26615 32.7643 8.48995 21.0526 7.49159C20.5597 7.44957 14.8289 7.48557 16.1503 6.73487C16.9713 6.26853 26.1525 2.28923 26.0777 2.23052C24.9782 1.36681 13.8842 5.33394 12.7818 6.55984C12.7103 6.6393 26.0094 13.956 27.711 14.6969" stroke="black" stroke-width="2" stroke-linecap="round"/>
<path d="M1.38327 33.9874C17.7906 33.2205 34.8895 34.063 51.0235 32.3495C58.7444 31.5295 47.2455 29.1033 44.4495 26.5771C40.8807 23.3527 53.0033 31.5383 57.7802 32.0997C59.6706 32.3218 44.888 37.7011 44.2025 39.899" stroke="black" stroke-width="2" stroke-linecap="round"/>
</svg>
