<svg width="116" height="20" viewBox="0 0 116 20" fill="none" xmlns="http://www.w3.org/2000/svg">
<path d="M114.139 3.98694C90.8203 3.22992 67.665 1.22475 44.3279 1.30959C30.9133 1.35836 -9.2024 1.52587 4.12267 3.07335C26.0248 5.61691 48.562 4.85641 70.5831 6.3539C79.1153 6.93411 87.5873 7.79842 96.0865 8.72516C99.3572 9.08179 101.924 9.77091 96.7026 9.63357C73.4001 9.02057 50.1722 6.82423 26.8664 6.11474C24.3794 6.03903 17.0215 6.18161 19.4329 6.79504C28.2719 9.04354 37.7047 9.75557 46.7129 10.883C57.5605 12.2407 68.5645 12.965 79.3376 14.857C83.2074 15.5366 88.3666 15.6333 91.995 17.1402C98.4158 19.807 78.149 18.6434 71.1968 18.7162C59.6265 18.8373 48.0564 18.5071 36.4888 18.3824" stroke="white" stroke-width="2" stroke-linecap="round"/>
</svg>
