<svg width="24" height="25" viewBox="0 0 24 25" fill="none" xmlns="http://www.w3.org/2000/svg">
<path fill-rule="evenodd" clip-rule="evenodd" d="M12 0.505005C5.37258 0.505005 0 5.87759 0 12.505C0 19.1324 5.37258 24.505 12 24.505C18.6274 24.505 24 19.1324 24 12.505C24 5.87759 18.6274 0.505005 12 0.505005ZM5.76081 10.4439H8.48027V18.6148H5.76081V10.4439ZM8.65938 7.91635C8.64173 7.11521 8.06883 6.505 7.13852 6.505C6.20821 6.505 5.6 7.11521 5.6 7.91635C5.6 8.70091 6.19023 9.32868 7.10322 9.32868H7.12059C8.06883 9.32868 8.65938 8.70091 8.65938 7.91635ZM15.1566 10.2521C16.9461 10.2521 18.2877 11.4201 18.2877 13.9299L18.2876 18.6148H15.5682V14.2434C15.5682 13.1454 15.1747 12.3961 14.1903 12.3961C13.4389 12.3961 12.9914 12.9012 12.7949 13.3891C12.723 13.5639 12.7053 13.8075 12.7053 14.0517V18.615H9.98555C9.98555 18.615 10.0214 11.2109 9.98555 10.4441H12.7053V11.6015C13.0663 11.0451 13.7127 10.2521 15.1566 10.2521Z" fill="white"/>
</svg>
