<svg width="26" height="24" viewBox="0 0 26 24" fill="none" xmlns="http://www.w3.org/2000/svg">
<path d="M21.5417 12.9167L13.0417 13.1667V12.8333L19.875 8C20.7639 7.38889 21.5417 7.08334 22.2083 7.08334C22.9306 7.08334 23.5139 7.27778 23.9583 7.66667C24.4583 8 24.7917 8.47222 24.9583 9.08333C25.1806 9.63889 25.2083 10.1944 25.0417 10.75C24.875 11.3056 24.5139 11.8056 23.9583 12.25C23.4028 12.6389 22.5972 12.8611 21.5417 12.9167ZM3.625 12.9167C2.56944 12.8611 1.76389 12.6389 1.20833 12.25C0.652778 11.8056 0.291667 11.3056 0.125 10.75C-0.0416667 10.1944 -0.0416667 9.63889 0.125 9.08333C0.347222 8.47222 0.680555 8 1.125 7.66667C1.625 7.27778 2.23611 7.08334 2.95833 7.08334C3.68056 7.08334 4.45833 7.38889 5.29167 8L12.125 12.8333V13.1667L3.625 12.9167ZM15.9583 21.3333L12.875 13.5833L13.0417 13.3333L20.0417 18.0833C20.9306 18.6944 21.4861 19.3611 21.7083 20.0833C21.9861 20.75 22.0139 21.3889 21.7917 22C21.5694 22.5556 21.2083 23.0278 20.7083 23.4167C20.2083 23.8056 19.6528 24 19.0417 24C18.4306 24 17.8472 23.8056 17.2917 23.4167C16.7917 22.9722 16.3472 22.2778 15.9583 21.3333ZM6.125 24C5.51389 24 4.95833 23.8056 4.45833 23.4167C3.95833 23.0278 3.59722 22.5556 3.375 22C3.15278 21.3889 3.15278 20.75 3.375 20.0833C3.65278 19.3611 4.23611 18.6944 5.125 18.0833L12.125 13.3333L12.2917 13.5833L9.20833 21.3333C8.81944 22.2778 8.34722 22.9722 7.79167 23.4167C7.29167 23.8056 6.73611 24 6.125 24ZM9.95833 4.58333C9.51389 3.02778 9.59722 1.88889 10.2083 1.16667C10.875 0.388889 11.6528 0 12.5417 0C13.4861 0 14.2639 0.388889 14.875 1.16667C15.5417 1.88889 15.6528 3.02778 15.2083 4.58333L12.7083 12.6667H12.4583L9.95833 4.58333Z" fill="#FF02A9"/>
</svg>
