<svg width="32" height="32" viewBox="0 0 32 32" fill="none" xmlns="http://www.w3.org/2000/svg">
<mask id="mask0_100_409" style="mask-type:alpha" maskUnits="userSpaceOnUse" x="0" y="0" width="32" height="32">
<rect width="32" height="32" fill="#D9D9D9"/>
</mask>
<g mask="url(#mask0_100_409)">
<path d="M15.9999 21.1262C17.111 21.1262 18.0555 20.7298 18.8333 19.9369C19.611 19.144 19.9999 18.1813 19.9999 17.0486C19.9999 15.9159 19.611 14.9531 18.8333 14.1602C18.0555 13.3674 17.111 12.9709 15.9999 12.9709C14.8888 12.9709 13.9444 13.3674 13.1666 14.1602C12.3888 14.9531 11.9999 15.9159 11.9999 17.0486C11.9999 18.1813 12.3888 19.144 13.1666 19.9369C13.9444 20.7298 14.8888 21.1262 15.9999 21.1262ZM15.9999 23.8447C14.1555 23.8447 12.5835 23.1818 11.2839 21.8561C9.98347 20.5314 9.33325 18.9288 9.33325 17.0486C9.33325 15.1683 9.98347 13.5654 11.2839 12.2397C12.5835 10.9149 14.1555 10.2525 15.9999 10.2525C17.8444 10.2525 19.4168 10.9149 20.7173 12.2397C22.0168 13.5654 22.6666 15.1683 22.6666 17.0486C22.6666 18.9288 22.0168 20.5314 20.7173 21.8561C19.4168 23.1818 17.8444 23.8447 15.9999 23.8447ZM2.66659 18.4078C2.28881 18.4078 1.97236 18.2773 1.71725 18.0163C1.46125 17.7563 1.33325 17.4337 1.33325 17.0486C1.33325 16.6635 1.46125 16.3404 1.71725 16.0795C1.97236 15.8194 2.28881 15.6894 2.66659 15.6894H5.33325C5.71103 15.6894 6.02792 15.8194 6.28392 16.0795C6.53903 16.3404 6.66659 16.6635 6.66659 17.0486C6.66659 17.4337 6.53903 17.7563 6.28392 18.0163C6.02792 18.2773 5.71103 18.4078 5.33325 18.4078H2.66659ZM26.6666 18.4078C26.2888 18.4078 25.9724 18.2773 25.7173 18.0163C25.4613 17.7563 25.3333 17.4337 25.3333 17.0486C25.3333 16.6635 25.4613 16.3404 25.7173 16.0795C25.9724 15.8194 26.2888 15.6894 26.6666 15.6894H29.3333C29.711 15.6894 30.0275 15.8194 30.2826 16.0795C30.5386 16.3404 30.6666 16.6635 30.6666 17.0486C30.6666 17.4337 30.5386 17.7563 30.2826 18.0163C30.0275 18.2773 29.711 18.4078 29.3333 18.4078H26.6666ZM15.9999 7.53405C15.6221 7.53405 15.3057 7.40356 15.0506 7.14259C14.7946 6.88253 14.6666 6.55994 14.6666 6.17483V3.45639C14.6666 3.07128 14.7946 2.74823 15.0506 2.48726C15.3057 2.2272 15.6221 2.09717 15.9999 2.09717C16.3777 2.09717 16.6946 2.2272 16.9506 2.48726C17.2057 2.74823 17.3333 3.07128 17.3333 3.45639V6.17483C17.3333 6.55994 17.2057 6.88253 16.9506 7.14259C16.6946 7.40356 16.3777 7.53405 15.9999 7.53405ZM15.9999 32C15.6221 32 15.3057 31.8695 15.0506 31.6085C14.7946 31.3485 14.6666 31.0259 14.6666 30.6408V27.9223C14.6666 27.5372 14.7946 27.2146 15.0506 26.9546C15.3057 26.6936 15.6221 26.5631 15.9999 26.5631C16.3777 26.5631 16.6946 26.6936 16.9506 26.9546C17.2057 27.2146 17.3333 27.5372 17.3333 27.9223V30.6408C17.3333 31.0259 17.2057 31.3485 16.9506 31.6085C16.6946 31.8695 16.3777 32 15.9999 32ZM7.53325 10.3204L6.09992 8.89327C5.83325 8.64408 5.70525 8.32693 5.71592 7.94181C5.72747 7.5567 5.85547 7.22822 6.09992 6.95638C6.36659 6.68453 6.68881 6.54861 7.06659 6.54861C7.44436 6.54861 7.75547 6.68453 7.99992 6.95638L9.39992 8.41754C9.64436 8.68938 9.76659 9.00654 9.76659 9.36899C9.76659 9.73145 9.64436 10.0486 9.39992 10.3204C9.15547 10.5923 8.85014 10.7223 8.48392 10.7105C8.11681 10.6997 7.79992 10.5696 7.53325 10.3204ZM23.9999 27.1408L22.5999 25.6796C22.3555 25.4078 22.2333 25.0852 22.2333 24.7119C22.2333 24.3376 22.3555 24.0259 22.5999 23.7767C22.8444 23.5049 23.1501 23.3748 23.5173 23.3866C23.8835 23.3975 24.1999 23.5275 24.4666 23.7767L25.8999 25.2039C26.1666 25.4531 26.2946 25.7702 26.2839 26.1554C26.2724 26.5405 26.1444 26.8689 25.8999 27.1408C25.6333 27.4126 25.311 27.5486 24.9333 27.5486C24.5555 27.5486 24.2444 27.4126 23.9999 27.1408ZM22.5999 10.3204C22.3333 10.0713 22.2057 9.75954 22.2173 9.3853C22.2279 9.01197 22.3555 8.68938 22.5999 8.41754L23.9999 6.95638C24.2444 6.68453 24.5555 6.55405 24.9333 6.56492C25.311 6.5767 25.6333 6.70719 25.8999 6.95638C26.1666 7.22822 26.2999 7.5567 26.2999 7.94181C26.2999 8.32693 26.1666 8.64408 25.8999 8.89327L24.4666 10.3204C24.1999 10.5696 23.8888 10.6942 23.5333 10.6942C23.1777 10.6942 22.8666 10.5696 22.5999 10.3204ZM6.09992 27.1408C5.83325 26.8689 5.69992 26.5405 5.69992 26.1554C5.69992 25.7702 5.83325 25.4531 6.09992 25.2039L7.53325 23.7767C7.79992 23.5275 8.11681 23.4029 8.48392 23.4029C8.85014 23.4029 9.15547 23.5275 9.39992 23.7767C9.66659 24.0259 9.79459 24.3376 9.78392 24.7119C9.77236 25.0852 9.64436 25.4078 9.39992 25.6796L7.99992 27.1408C7.75547 27.4126 7.44436 27.5427 7.06659 27.5309C6.68881 27.52 6.36659 27.39 6.09992 27.1408Z" fill="white"/>
</g>
</svg>
