<svg width="37" height="37" viewBox="0 0 37 37" fill="none" xmlns="http://www.w3.org/2000/svg">
<path d="M31.7737 27.9141L36.1282 1.70993C36.1825 1.47247 36.118 1.21326 35.9331 1.02837C35.933 1.02828 35.933 1.02828 35.9329 1.0282C35.9129 1.00817 35.8918 0.989957 35.8701 0.972607C35.8628 0.966824 35.8553 0.961559 35.8477 0.956034C35.8339 0.945849 35.82 0.936097 35.8056 0.926947C35.7952 0.920301 35.7846 0.914171 35.7738 0.908042C35.7622 0.901482 35.7506 0.895268 35.7387 0.889571C35.7256 0.883011 35.7124 0.87671 35.6989 0.871013C35.6906 0.867474 35.682 0.864452 35.6736 0.861172C35.5538 0.815683 35.4229 0.800406 35.2931 0.821812L9.04357 5.18368C8.83062 5.21916 8.64435 5.34725 8.53404 5.53284C8.42381 5.7185 8.40119 5.94362 8.47206 6.14759C8.47897 6.16761 9.16648 8.18269 9.06739 10.9366C8.94491 14.3408 7.73543 17.3222 5.47107 19.81L3.95758 18.2965C3.67161 18.0105 3.20774 18.0105 2.92178 18.2965L0.526298 20.692C0.240245 20.978 0.24033 21.4418 0.526299 21.7278L15.2298 36.4312C15.5158 36.7173 15.9795 36.7173 16.2656 36.4312L18.661 34.0357C18.947 33.7498 18.9471 33.286 18.661 32.9999L17.1477 31.4866C19.6356 29.2223 22.617 28.0128 26.021 27.8903C28.7748 27.7912 30.7897 28.4785 30.8086 28.4852C31.0129 28.5568 31.238 28.5346 31.4242 28.4243C31.6103 28.3142 31.7382 28.1274 31.7737 27.9141ZM18.3272 15.0712C19.2657 14.1333 20.8277 14.1684 21.8091 15.1493C22.288 15.6282 22.558 16.2564 22.5695 16.9183C22.5807 17.5707 22.3384 18.1783 21.8873 18.6292C20.9491 19.5671 19.3874 19.5319 18.4058 18.5509L17.8875 19.0684L18.4055 18.5506C17.4248 17.5697 17.3898 16.0087 18.3272 15.0712ZM15.7477 34.8775L2.08001 21.2099L3.43968 19.8502L17.1073 33.5178L15.7477 34.8775ZM26.0294 26.4243C23.3771 26.51 19.5599 27.2918 16.1108 30.4497L6.50817 20.8467C9.666 17.3977 10.4476 13.5805 10.5333 10.928C10.5961 8.98855 10.3102 7.40307 10.0899 6.49484L33.2836 2.64086L22.2773 13.6415C20.7346 12.5749 18.6283 12.6992 17.2915 14.0353C15.7828 15.5441 15.8178 18.0343 17.3696 19.5864C17.3696 19.5864 17.3702 19.587 17.3702 19.5871C18.9228 21.1388 21.4138 21.174 22.9228 19.6654C23.6576 18.9309 24.0522 17.9464 24.034 16.893C24.0201 16.0933 23.7683 15.3273 23.3146 14.6756L34.3157 3.68021L30.4625 26.8676C29.5544 26.6474 27.969 26.3616 26.0294 26.4243Z" fill="white"/>
</svg>
