<svg width="37" height="37" viewBox="0 0 37 37" fill="none" xmlns="http://www.w3.org/2000/svg">
<path d="M31.7737 27.9141L36.1282 1.70993C36.1825 1.47247 36.118 1.21326 35.9331 1.02837C35.9331 1.02828 35.9331 1.02828 35.933 1.0282C35.9129 1.00817 35.8918 0.989957 35.8701 0.972607C35.8628 0.966824 35.8553 0.961559 35.8477 0.956034C35.8339 0.945849 35.82 0.936097 35.8057 0.926947C35.7952 0.920301 35.7846 0.914171 35.7738 0.908042C35.7622 0.901482 35.7507 0.895268 35.7388 0.889571C35.7256 0.883011 35.7124 0.87671 35.699 0.871013C35.6906 0.867474 35.682 0.864452 35.6736 0.861172C35.5539 0.815683 35.4229 0.800406 35.2931 0.821812L9.0436 5.18368C8.83065 5.21916 8.64438 5.34725 8.53407 5.53284C8.42384 5.7185 8.40123 5.94362 8.47209 6.14759C8.479 6.16761 9.16651 8.18269 9.06742 10.9366C8.94494 14.3408 7.73546 17.3222 5.4711 19.81L3.95761 18.2965C3.67164 18.0105 3.20777 18.0105 2.92181 18.2965L0.526329 20.692C0.240275 20.978 0.24036 21.4418 0.526329 21.7278L15.2298 36.4312C15.5158 36.7173 15.9795 36.7173 16.2656 36.4312L18.6611 34.0357C18.947 33.7498 18.9471 33.286 18.6611 32.9999L17.1478 31.4866C19.6356 29.2223 22.6171 28.0128 26.021 27.8903C28.7749 27.7912 30.7898 28.4785 30.8087 28.4852C31.0129 28.5568 31.238 28.5346 31.4242 28.4243C31.6103 28.3142 31.7382 28.1274 31.7737 27.9141ZM18.3273 15.0712C19.2657 14.1333 20.8277 14.1684 21.8091 15.1493C22.288 15.6282 22.558 16.2564 22.5695 16.9183C22.5807 17.5707 22.3384 18.1783 21.8873 18.6292C20.9492 19.5671 19.3874 19.5319 18.4058 18.5509L17.8876 19.0684L18.4056 18.5506C17.4248 17.5697 17.3898 16.0087 18.3273 15.0712ZM15.7477 34.8775L2.08004 21.2099L3.43971 19.8502L17.1074 33.5178L15.7477 34.8775ZM26.0294 26.4243C23.3772 26.51 19.56 27.2918 16.1108 30.4497L6.5082 20.8467C9.66603 17.3977 10.4476 13.5805 10.5333 10.928C10.5961 8.98855 10.3102 7.40307 10.0899 6.49484L33.2836 2.64086L22.2773 13.6415C20.7347 12.5749 18.6284 12.6992 17.2916 14.0353C15.7828 15.5441 15.8179 18.0343 17.3696 19.5864C17.3696 19.5864 17.3702 19.587 17.3703 19.5871C18.9229 21.1388 21.4138 21.174 22.9228 19.6654C23.6576 18.9309 24.0523 17.9464 24.0341 16.893C24.0202 16.0933 23.7683 15.3273 23.3146 14.6756L34.3157 3.68021L30.4625 26.8676C29.5544 26.6474 27.969 26.3616 26.0294 26.4243Z" fill="black"/>
</svg>
