<svg width="41" height="41" viewBox="0 0 41 41" fill="none" xmlns="http://www.w3.org/2000/svg">
<mask id="mask0_100_400" style="mask-type:alpha" maskUnits="userSpaceOnUse" x="0" y="0" width="41" height="41">
<rect x="0.5" y="0.495483" width="40" height="40" fill="#D9D9D9"/>
</mask>
<g mask="url(#mask0_100_400)">
<path d="M20.5 20.4955C18.6666 20.4955 17.0972 19.8427 15.7916 18.5372C14.4861 17.2316 13.8333 15.6622 13.8333 13.8288C13.8333 11.9955 14.4861 10.426 15.7916 9.12049C17.0972 7.81493 18.6666 7.16216 20.5 7.16216C22.3333 7.16216 23.9027 7.81493 25.2083 9.12049C26.5138 10.426 27.1666 11.9955 27.1666 13.8288C27.1666 15.6622 26.5138 17.2316 25.2083 18.5372C23.9027 19.8427 22.3333 20.4955 20.5 20.4955ZM7.16663 33.8288V29.1622C7.16663 28.2177 7.40996 27.3494 7.89663 26.5572C8.38218 25.766 9.02774 25.1622 9.83329 24.7455C11.5555 23.8844 13.3055 23.2383 15.0833 22.8072C16.8611 22.3772 18.6666 22.1622 20.5 22.1622C22.3333 22.1622 24.1388 22.3772 25.9166 22.8072C27.6944 23.2383 29.4444 23.8844 31.1666 24.7455C31.9722 25.1622 32.6177 25.766 33.1033 26.5572C33.59 27.3494 33.8333 28.2177 33.8333 29.1622V33.8288H7.16663ZM10.5 30.4955H30.5V29.1622C30.5 28.8566 30.4238 28.5788 30.2716 28.3288C30.1183 28.0788 29.9166 27.8844 29.6666 27.7455C28.1666 26.9955 26.6527 26.4327 25.125 26.0572C23.5972 25.6827 22.0555 25.4955 20.5 25.4955C18.9444 25.4955 17.4027 25.6827 15.875 26.0572C14.3472 26.4327 12.8333 26.9955 11.3333 27.7455C11.0833 27.8844 10.8822 28.0788 10.73 28.3288C10.5766 28.5788 10.5 28.8566 10.5 29.1622V30.4955ZM20.5 17.1622C21.4166 17.1622 22.2016 16.8355 22.855 16.1822C23.5072 15.5299 23.8333 14.7455 23.8333 13.8288C23.8333 12.9122 23.5072 12.1277 22.855 11.4755C22.2016 10.8222 21.4166 10.4955 20.5 10.4955C19.5833 10.4955 18.7988 10.8222 18.1466 11.4755C17.4933 12.1277 17.1666 12.9122 17.1666 13.8288C17.1666 14.7455 17.4933 15.5299 18.1466 16.1822C18.7988 16.8355 19.5833 17.1622 20.5 17.1622Z" fill="white"/>
</g>
</svg>
